<svg width="24" height="24" viewBox="0 0 24 24" fill="none" xmlns="http://www.w3.org/2000/svg">
<path d="M21.448 8.2C21.5 9.25 21.5 10.5 21.5 12C21.5 16.478 21.5 18.718 20.109 20.109C18.718 21.5 16.479 21.5 12 21.5C7.522 21.5 5.282 21.5 3.891 20.109C2.5 18.718 2.5 16.479 2.5 12C2.5 7.522 2.5 5.282 3.891 3.891C5.282 2.5 7.521 2.5 12 2.5C13.072 2.5 14.016 2.5 14.85 2.52" stroke="#288FD6" stroke-width="1.5" stroke-linecap="round"/>
<path d="M8 11.5C8 11.5 9.5 11.5 11.5 15C11.5 15 16.559 5.833 21.5 4" stroke="#288FD6" stroke-width="1.5" stroke-linecap="round" stroke-linejoin="round"/>
</svg>
