<svg width="24" height="24" viewBox="0 0 24 24" fill="none" xmlns="http://www.w3.org/2000/svg">
<path d="M17.58 9.71C16.1551 9.32079 14.6368 9.47083 13.3157 10.1314C11.9946 10.7919 10.9635 11.9166 10.42 13.29M17.58 9.71C18.4527 9.94865 19.2602 10.3816 19.942 10.9764C20.6237 11.5713 21.1621 12.3126 21.5169 13.1449C21.8717 13.9772 22.0336 14.879 21.9906 15.7828C21.9476 16.6865 21.7007 17.5688 21.2685 18.3637C20.8363 19.1586 20.2299 19.8454 19.4947 20.3728C18.7596 20.9002 17.9146 21.2545 17.0232 21.4092C16.1317 21.5639 15.2168 21.5149 14.3469 21.266C13.4771 21.0172 12.6747 20.5748 12 19.972M17.58 9.71C17.9396 8.80006 18.0713 7.81598 17.9635 6.84351C17.8556 5.87105 17.5117 4.9397 16.9614 4.13063C16.4112 3.32156 15.6715 2.65932 14.8068 2.20162C13.942 1.74392 12.9784 1.50464 12 1.50464C11.0216 1.50464 10.058 1.74392 9.19322 2.20162C8.32845 2.65932 7.58874 3.32156 7.03853 4.13063C6.48833 4.9397 6.14434 5.87105 6.03653 6.84351C5.92872 7.81598 6.06036 8.80006 6.41999 9.71M10.42 13.29C10.1419 13.9936 9.99941 14.7434 9.99999 15.5C9.99999 17.277 10.773 18.874 12 19.972M10.42 13.29C9.5214 13.0441 8.69227 12.5927 7.99808 11.9714C7.30389 11.3501 6.76364 10.5759 6.41999 9.71M12 19.972C11.3253 20.5748 10.5229 21.0172 9.65305 21.266C8.78318 21.5149 7.86828 21.5639 6.97682 21.4092C6.08536 21.2545 5.24043 20.9002 4.50526 20.3728C3.77008 19.8454 3.1637 19.1586 2.73149 18.3637C2.29927 17.5688 2.05242 16.6865 2.00941 15.7828C1.96639 14.879 2.12833 13.9772 2.48309 13.1449C2.83786 12.3126 3.37627 11.5713 4.05803 10.9764C4.73979 10.3816 5.54726 9.94865 6.41999 9.71" stroke="#288FD6" stroke-width="1.5" stroke-linecap="round"/>
</svg>
