<svg width="24" height="24" viewBox="0 0 24 24" fill="none" xmlns="http://www.w3.org/2000/svg">
<path d="M5.14302 14C4.39267 12.7712 3.99707 11.3588 4.00002 9.919C4.00002 5.545 7.58202 2 12 2C16.418 2 20 5.545 20 9.919C20.003 11.3588 19.6074 12.7712 18.857 14" stroke="#288FD6" stroke-width="1.5" stroke-linecap="round"/>
<path d="M15 19L14.87 19.647C14.73 20.354 14.659 20.707 14.5 20.987C14.255 21.4186 13.8583 21.7436 13.387 21.899C13.082 22 12.72 22 12 22C11.28 22 10.918 22 10.613 21.9C10.1415 21.7444 9.74482 21.4189 9.5 20.987C9.341 20.707 9.27 20.354 9.13 19.647L9 19M7.383 17.098C7.291 16.822 7.245 16.683 7.25 16.571C7.25566 16.4552 7.29475 16.3435 7.36254 16.2494C7.43033 16.1554 7.52393 16.083 7.632 16.041C7.736 16 7.882 16 8.172 16H15.828C16.119 16 16.264 16 16.368 16.04C16.4762 16.0821 16.5699 16.1546 16.6377 16.2489C16.7055 16.3431 16.7445 16.455 16.75 16.571C16.755 16.683 16.709 16.821 16.617 17.098C16.447 17.609 16.362 17.865 16.231 18.072C15.957 18.5046 15.5275 18.8156 15.031 18.941C14.793 19 14.525 19 13.988 19H10.012C9.475 19 9.206 19 8.969 18.94C8.47267 18.8149 8.04319 18.5042 7.769 18.072C7.638 17.865 7.553 17.609 7.383 17.098Z" stroke="#288FD6" stroke-width="1.5"/>
<path d="M12 16V11" stroke="#288FD6" stroke-width="1.5" stroke-linecap="round" stroke-linejoin="round"/>
</svg>
