<svg width="24" height="24" viewBox="0 0 24 24" fill="none" xmlns="http://www.w3.org/2000/svg">
<path d="M11.801 6.49005L13.287 5.00405C14.96 3.33105 17.149 2.63705 19.467 2.52405C20.369 2.48005 20.819 2.45805 21.181 2.81905C21.542 3.18105 21.521 3.63105 21.476 4.53305C21.363 6.85105 20.669 9.04005 18.996 10.7131L17.511 12.2001C16.287 13.4231 15.939 13.7711 16.196 15.0981C16.45 16.1121 16.695 17.0931 15.958 17.8301C15.064 18.7251 14.248 18.7251 13.354 17.8301L6.17101 10.6471C5.27601 9.75305 5.27601 8.93705 6.17101 8.04305C6.90801 7.30605 7.88901 7.55105 8.90301 7.80505C10.23 8.06205 10.578 7.71405 11.801 6.49005Z" stroke="#288FD6" stroke-width="1.5" stroke-linejoin="round"/>
<path d="M2.5 21.5L7.5 16.5M8.5 21.5L10.5 19.5M2.5 15.5L4.5 13.5" stroke="#288FD6" stroke-width="1.5" stroke-linecap="round"/>
<path d="M17.125 7H17M17.25 7C17.25 7.0663 17.2237 7.12989 17.1768 7.17678C17.1299 7.22366 17.0663 7.25 17 7.25C16.9337 7.25 16.8701 7.22366 16.8232 7.17678C16.7763 7.12989 16.75 7.0663 16.75 7C16.75 6.9337 16.7763 6.87011 16.8232 6.82322C16.8701 6.77634 16.9337 6.75 17 6.75C17.0663 6.75 17.1299 6.77634 17.1768 6.82322C17.2237 6.87011 17.25 6.9337 17.25 7Z" stroke="#288FD6" stroke-width="1.5" stroke-linecap="round" stroke-linejoin="round"/>
</svg>
