<svg width="24" height="24" viewBox="0 0 24 24" fill="none" xmlns="http://www.w3.org/2000/svg">
<path d="M15 15L16.5 16.5M16.933 19.025C16.7885 18.8893 16.6727 18.7259 16.5925 18.5446C16.5123 18.3632 16.4694 18.1676 16.4663 17.9694C16.4631 17.7711 16.4999 17.5743 16.5743 17.3905C16.6488 17.2067 16.7594 17.0398 16.8996 16.8996C17.0398 16.7594 17.2067 16.6488 17.3905 16.5743C17.5743 16.4999 17.7711 16.4631 17.9694 16.4663C18.1676 16.4694 18.3632 16.5123 18.5446 16.5925C18.7259 16.6727 18.8893 16.7885 19.025 16.933L21.067 18.975C21.2115 19.1107 21.3273 19.2741 21.4075 19.4554C21.4877 19.6368 21.5306 19.8324 21.5337 20.0306C21.5369 20.2289 21.5001 20.4257 21.4257 20.6095C21.3512 20.7933 21.2406 20.9602 21.1004 21.1004C20.9602 21.2406 20.7933 21.3512 20.6095 21.4257C20.4257 21.5001 20.2289 21.5369 20.0306 21.5337C19.8324 21.5306 19.6368 21.4877 19.4554 21.4075C19.2741 21.3273 19.1107 21.2115 18.975 21.067L16.933 19.025ZM16.5 9.5C16.5 7.64348 15.7625 5.86301 14.4497 4.55025C13.137 3.2375 11.3565 2.5 9.5 2.5C7.64348 2.5 5.86301 3.2375 4.55025 4.55025C3.2375 5.86301 2.5 7.64348 2.5 9.5C2.5 11.3565 3.2375 13.137 4.55025 14.4497C5.86301 15.7625 7.64348 16.5 9.5 16.5C11.3565 16.5 13.137 15.7625 14.4497 14.4497C15.7625 13.137 16.5 11.3565 16.5 9.5Z" stroke="#288FD6" stroke-width="1.5" stroke-linecap="round" stroke-linejoin="round"/>
</svg>
