<svg width="24" height="24" viewBox="0 0 24 24" fill="none" xmlns="http://www.w3.org/2000/svg">
<path d="M2.5 8H21.5M12 16H16M15 4H9C5.7 4 4.05 4 3.025 5.025C2 6.05 2 7.7 2 11V13C2 16.3 2 17.95 3.025 18.975C4.05 20 5.7 20 9 20H15C18.3 20 19.95 20 20.975 18.975C22 17.95 22 16.3 22 13V11C22 7.7 22 6.05 20.975 5.025C19.95 4 18.3 4 15 4Z" stroke="#288FD6" stroke-width="1.5" stroke-linecap="round" stroke-linejoin="round"/>
<path d="M7 12L8.227 13.057C8.742 13.502 9 13.724 9 14C9 14.276 8.742 14.498 8.227 14.943L7 16" stroke="#288FD6" stroke-width="1.5" stroke-linecap="round" stroke-linejoin="round"/>
</svg>
