<svg width="25" height="25" viewBox="0 0 25 25" fill="none" xmlns="http://www.w3.org/2000/svg">
<path d="M19.1406 0H5.85938C2.62333 0 0 2.62333 0 5.85938V19.1406C0 22.3767 2.62333 25 5.85938 25H19.1406C22.3767 25 25 22.3767 25 19.1406V5.85938C25 2.62333 22.3767 0 19.1406 0Z" fill="#330000"/>
<path d="M12.0833 14.8763H8.20831L7.41661 17.3242C7.39581 17.418 7.31251 17.4805 7.21876 17.47H5.26036C5.14581 17.47 5.11456 17.4075 5.14581 17.2825L8.50001 7.62627C8.53126 7.52217 8.56251 7.40752 8.60411 7.28252C8.64581 7.06377 8.66661 6.83467 8.66661 6.60547C8.65626 6.55342 8.69786 6.50127 8.75001 6.49092H11.4479C11.5313 6.49092 11.5729 6.52217 11.5833 6.57422L15.3854 17.3034C15.4166 17.418 15.3854 17.47 15.2813 17.47H13.1041C13.0313 17.4805 12.9583 17.4284 12.9375 17.3555L12.0833 14.8763ZM8.81251 12.7617H11.4583C11.3958 12.543 11.3125 12.2825 11.2188 12.0117C11.125 11.7305 11.0313 11.4284 10.9375 11.1159C10.8333 10.793 10.7396 10.4805 10.6354 10.1575C10.5313 9.83467 10.4375 9.53252 10.3541 9.23047C10.2708 8.93887 10.1979 8.66797 10.125 8.41797H10.1041C10.0104 8.86592 9.89581 9.31387 9.75001 9.76172C9.59376 10.2617 9.43751 10.7825 9.27081 11.3034C9.13631 11.7951 8.98343 12.2815 8.81251 12.7617ZM17.7083 8.31377C17.3646 8.32422 17.0313 8.18877 16.7813 7.94922C16.5417 7.68877 16.4167 7.34502 16.4271 6.99092C16.4167 6.63672 16.5521 6.30342 16.8021 6.06377C17.0521 5.82412 17.3855 5.69922 17.7292 5.69922C18.1355 5.69922 18.448 5.82422 18.6771 6.06377C18.908 6.3163 19.0313 6.64891 19.0208 6.99092C19.0313 7.34502 18.9063 7.68877 18.6563 7.94922C18.4167 8.19922 18.0625 8.33467 17.7083 8.31377ZM16.5417 17.3555V9.33467C16.5417 9.23047 16.5833 9.18877 16.6771 9.18877H18.7396C18.8333 9.18877 18.875 9.24092 18.875 9.33467V17.3555C18.875 17.47 18.8333 17.5222 18.7396 17.5222H16.698C16.5938 17.5222 16.5417 17.4597 16.5417 17.3555Z" fill="#FF9A00"/>
</svg>
