<svg width="25" height="25" viewBox="0 0 25 25" fill="none" xmlns="http://www.w3.org/2000/svg">
<path d="M4.42871 0.3125H20.5762C23.0225 0.3125 25 2.29004 25 4.73633V20.2637C25 22.71 23.0225 24.6924 20.5713 24.6924H4.42871C1.97754 24.6875 0 22.71 0 20.2637V4.73633C0 2.29004 1.97754 0.3125 4.42871 0.3125Z" fill="#001E36"/>
<path d="M13.125 17.5391H6.52346C6.40627 17.5391 6.35744 17.4805 6.35744 17.3535V6.70902C6.34767 6.64066 6.3965 6.5723 6.47463 6.56253H8.54982C8.59865 6.55277 8.66701 6.59183 8.66701 6.65042V15.4248H13.4815C13.5889 15.4248 13.6182 15.4737 13.5987 15.5713L13.2959 17.3828C13.2959 17.4317 13.2666 17.4805 13.2373 17.5098C13.2031 17.5293 13.1641 17.5391 13.125 17.5391ZM14.7901 9.20413H16.6113C16.7188 9.20413 16.7969 9.27249 16.8262 9.37015C16.8653 9.43851 16.8945 9.5264 16.9141 9.61429C16.9336 9.72171 16.9531 9.82913 16.9629 9.93655C16.9727 10.0537 16.9824 10.1807 16.9824 10.3076C17.2949 9.94632 17.6758 9.64359 18.0957 9.40921C18.5742 9.14554 19.1113 9.01859 19.6485 9.03812C19.7168 9.02835 19.7852 9.07718 19.7949 9.1553V11.2305C19.7949 11.3184 19.7461 11.3477 19.6289 11.3477C18.9551 11.3086 18.2715 11.4356 17.6612 11.6993C17.4561 11.7969 17.251 11.9141 17.0947 12.0899V17.4024C17.0947 17.5098 17.0557 17.5489 16.958 17.5489H14.9317C14.8438 17.5586 14.7754 17.5098 14.7656 17.4219V11.6114C14.7656 11.3575 14.7656 11.1035 14.7559 10.8301C14.7461 10.5567 14.7461 10.2832 14.7363 10.0196C14.7266 9.78519 14.707 9.56058 14.6778 9.3262C14.668 9.27737 14.6973 9.21878 14.7461 9.20902C14.7608 9.19437 14.7705 9.19437 14.7901 9.20413Z" fill="#31A8FF"/>
</svg>
