<svg width="25" height="25" viewBox="0 0 25 25" fill="none" xmlns="http://www.w3.org/2000/svg">
<path d="M19.1406 0H5.85938C2.62333 0 0 2.62333 0 5.85938V19.1406C0 22.3767 2.62333 25 5.85938 25H19.1406C22.3767 25 25 22.3767 25 19.1406V5.85938C25 2.62333 22.3767 0 19.1406 0Z" fill="#001E36"/>
<path d="M5.625 17.3865V6.66777C5.625 6.59482 5.65625 6.55322 5.7292 6.55322C5.90625 6.55322 6.07295 6.55322 6.3125 6.54277C6.5625 6.53232 6.82295 6.53232 7.1042 6.52197C7.38545 6.51152 7.6875 6.51152 8.01045 6.50107C8.3333 6.49072 8.6458 6.49072 8.9583 6.49072C9.8125 6.49072 10.5208 6.59482 11.1042 6.81357C11.6271 6.99119 12.1039 7.28298 12.5 7.66777C12.8356 8.00459 13.0949 8.40956 13.2604 8.85527C13.4167 9.29277 13.5 9.74072 13.5 10.2095C13.5 11.1053 13.2917 11.8449 12.875 12.4282C12.4583 13.0115 11.875 13.449 11.1979 13.699C10.4896 13.9595 9.7083 14.0532 8.8542 14.0532C8.6042 14.0532 8.4375 14.0532 8.3333 14.0428C8.2291 14.0323 8.0833 14.0323 7.88545 14.0323V17.3761C7.8958 17.449 7.84375 17.5115 7.7708 17.522H5.75C5.6667 17.522 5.625 17.4803 5.625 17.3865ZM7.8958 8.56357V12.0636C8.0417 12.074 8.17705 12.0845 8.30205 12.0845H8.8542C9.26045 12.0845 9.6667 12.022 10.0521 11.897C10.3854 11.8032 10.6771 11.6053 10.9062 11.3448C11.125 11.0845 11.2292 10.7303 11.2292 10.272C11.239 9.94644 11.1559 9.62485 10.9896 9.34482C10.8125 9.07402 10.5625 8.86572 10.2604 8.75107C9.875 8.59482 9.4583 8.53232 9.03125 8.54277C8.76045 8.54277 8.5208 8.54277 8.32295 8.55322C8.11455 8.54277 7.96875 8.55322 7.8958 8.56357ZM20 11.4282C19.6875 11.2615 19.3542 11.147 19 11.074C18.6145 10.9907 18.2292 10.9386 17.8333 10.9386C17.625 10.9282 17.4062 10.9595 17.2083 11.0115C17.0729 11.0428 16.9583 11.1157 16.8854 11.2198C16.8333 11.3032 16.8021 11.4073 16.8021 11.5011C16.8021 11.5948 16.8438 11.6886 16.9062 11.772C17 11.8865 17.125 11.9803 17.2604 12.0532C17.502 12.1783 17.7487 12.2929 18 12.397C18.5625 12.5845 19.1042 12.8448 19.6042 13.1573C19.9479 13.3761 20.2292 13.6678 20.4271 14.022C20.5938 14.3553 20.6771 14.7198 20.6667 15.0948C20.6771 15.5845 20.5312 16.074 20.2604 16.4803C19.9699 16.8961 19.5645 17.2182 19.0938 17.4073C18.5833 17.6261 17.9583 17.7407 17.2083 17.7407C16.7292 17.7407 16.2604 17.699 15.7917 17.6053C15.4243 17.5418 15.067 17.4297 14.7292 17.272C14.6562 17.2303 14.6042 17.1573 14.6146 17.074V15.2615C14.6146 15.2303 14.625 15.1886 14.6562 15.1678C14.6875 15.147 14.7187 15.1573 14.75 15.1782C15.1562 15.4178 15.5833 15.5845 16.0417 15.6886C16.4375 15.7928 16.8542 15.8448 17.2708 15.8448C17.6667 15.8448 17.9479 15.7928 18.1354 15.699C18.3021 15.6261 18.4167 15.449 18.4167 15.2615C18.4167 15.1157 18.3333 14.9803 18.1667 14.8448C18 14.7095 17.6562 14.5532 17.1458 14.3553C16.6222 14.1707 16.125 13.9186 15.6667 13.6053C15.3402 13.3727 15.0698 13.0702 14.875 12.7198C14.7083 12.3865 14.625 12.022 14.6354 11.6573C14.6354 11.2095 14.7604 10.7823 14.9896 10.397C15.25 9.98027 15.6354 9.64697 16.0833 9.43857C16.5729 9.18857 17.1875 9.07402 17.9271 9.07402C18.3542 9.07402 18.7917 9.10527 19.2188 9.16777C19.5313 9.20947 19.8333 9.29277 20.1146 9.40732C20.1563 9.41777 20.1979 9.45947 20.2188 9.50107C20.2292 9.54277 20.2396 9.58447 20.2396 9.62607V11.324C20.2396 11.3657 20.2187 11.4073 20.1875 11.4282C20.0938 11.449 20.0417 11.449 20 11.4282Z" fill="#31A8FF"/>
</svg>
