<svg width="25" height="25" viewBox="0 0 25 25" fill="none" xmlns="http://www.w3.org/2000/svg">
<path d="M5.45508 2.01846L12.5 1.27881L19.5449 2.01865L25 9.28076L12.5 23.7214L0 9.28076L5.45508 2.01846Z" fill="#FDB300"/>
<path d="M5.06348 9.28076L12.5 23.7214L0 9.28076H5.06348ZM19.9365 9.28076L12.5 23.7214L25 9.28076H19.9365Z" fill="#EA6C00"/>
<path d="M5.06348 9.28076H19.9365L12.5 23.7214L5.06348 9.28076Z" fill="#FDAD00"/>
<path d="M12.5 1.27881L5.45508 2.01846L5.06348 9.28076L12.5 1.27881ZM12.5 1.27881L19.5449 2.01846L19.9365 9.28076L12.5 1.27881Z" fill="#FDD231"/>
<path d="M25 9.28086L19.5449 2.01855L19.9365 9.28086H25Z" fill="#FDAD00"/>
<path d="M12.5 1.27881L5.06348 9.28076H19.9365L12.5 1.27881Z" fill="#FEEEB7"/>
<path d="M0 9.28086L5.45508 2.01855L5.06348 9.28086H0Z" fill="#FDAD00"/>
</svg>
