<svg preserveAspectRatio="none" width="100%" height="100%" overflow="visible" style="display: block;" viewBox="0 0 199.955 67.1051" fill="none" xmlns="http://www.w3.org/2000/svg">
<path id="Vector 66" d="M1.50027 34.5505C13.1287 13.6193 38.3428 -11.7234 62.7829 9.52881C76.3156 21.2964 83.4338 54.7839 63.5212 64.7406C56.4018 68.3005 56.2773 59.9918 57.2863 55.5523C59.1185 47.4904 64.7294 40.9629 71.725 36.7656C89.3334 26.2007 103.472 43.2046 118.241 49.9737C137.409 58.7592 165.947 59.5924 185.758 52.2708C202.881 45.943 191.708 45.2527 180.18 40.1291C171.413 36.2327 190.71 41.1001 193.47 42.2621C196.938 43.7223 200.405 42.5465 197.162 45.7898C191.667 51.2847 186.339 57.8408 181.656 64.0843" stroke="var(--stroke-0, #FF7043)" stroke-width="3" stroke-linecap="round"/>
</svg>
