<svg preserveAspectRatio="none" width="100%" height="100%" overflow="visible" style="display: block;" viewBox="0 0 25 25" fill="none" xmlns="http://www.w3.org/2000/svg">
<g id="devicon:figma" clip-path="url(#clip0_0_31)">
<path id="Vector" d="M8.88672 25.1953C11.2109 25.1953 13.0859 23.3203 13.0859 20.9961V16.7969H8.88672C6.5625 16.7969 4.6875 18.6719 4.6875 20.9961C4.6875 23.3203 6.5625 25.1953 8.88672 25.1953Z" fill="var(--fill-0, #0ACF83)"/>
<path id="Vector_2" d="M4.6875 12.5977C4.6875 10.2734 6.5625 8.39844 8.88672 8.39844H13.0859V16.7969H8.88672C6.5625 16.7969 4.6875 14.9219 4.6875 12.5977Z" fill="var(--fill-0, #A259FF)"/>
<path id="Vector_3" d="M4.6875 4.19922C4.6875 1.875 6.5625 0 8.88672 0H13.0859V8.39844H8.88672C6.5625 8.39844 4.6875 6.52344 4.6875 4.19922Z" fill="var(--fill-0, #F24E1E)"/>
<path id="Vector_4" d="M13.0859 0H17.2852C19.6094 0 21.4844 1.875 21.4844 4.19922C21.4844 6.52344 19.6094 8.39844 17.2852 8.39844H13.0859V0Z" fill="var(--fill-0, #FF7262)"/>
<path id="Vector_5" d="M21.4844 12.5977C21.4844 14.9219 19.6094 16.7969 17.2852 16.7969C14.9609 16.7969 13.0859 14.9219 13.0859 12.5977C13.0859 10.2734 14.9609 8.39844 17.2852 8.39844C19.6094 8.39844 21.4844 10.2734 21.4844 12.5977Z" fill="var(--fill-0, #1ABCFE)"/>
</g>
<defs>
<clipPath id="clip0_0_31">
<rect width="25" height="25" fill="white"/>
</clipPath>
</defs>
</svg>
