<svg preserveAspectRatio="none" width="100%" height="100%" overflow="visible" style="display: block;" viewBox="0 0 25 25" fill="none" xmlns="http://www.w3.org/2000/svg">
<g id="devicon:notion" clip-path="url(#clip0_0_5)">
<path id="Vector" d="M14.8926 0.0488281L17.4432 0.065625C17.4912 0.10293 17.5301 0.127344 17.5713 0.145703C18.0336 0.354688 18.5348 0.504297 18.9514 0.782031C20.1592 1.58477 21.3387 2.43066 22.5174 3.27617C23.0652 3.66816 23.6053 4.07637 24.1104 4.52031C24.4857 4.85 24.6543 5.31777 24.6553 5.8166L24.6543 21.5141C24.6537 21.733 24.6162 21.9582 24.5553 22.1687C24.2783 23.1285 23.6641 23.7854 22.6975 24.0418C22.1877 24.1768 21.6492 24.2187 21.1205 24.2623C20.2957 24.3309 19.468 24.3645 18.6416 24.4141L17.0783 24.5117L14.5752 24.659L13.0363 24.7551L10.5088 24.9016L9.20254 24.9551C9.16055 24.9572 9.12168 25.016 9.08203 25.0488C8.08789 25.0488 7.09453 25.0488 6.09199 25.0328C6.04395 24.9947 6.00742 24.9641 5.96465 24.952C5.35879 24.7764 4.85078 24.4416 4.46016 23.9555C3.91914 23.2834 3.40508 22.5906 2.88477 21.9025C2.24531 21.057 1.58926 20.224 0.984961 19.3543C0.629772 18.8461 0.439526 18.2409 0.440039 17.6209C0.438336 12.9848 0.438922 8.34863 0.441797 3.7125C0.441797 3.57891 0.465234 3.44395 0.488281 3.31113C0.730859 1.88379 1.7875 1.12227 3.04414 0.981055C3.69648 0.907812 4.35332 0.875 5.00879 0.831641L6.74121 0.731641L7.48594 0.682813L9.73203 0.489062L10.9771 0.391406L13.0395 0.244922L14.7719 0.142578C14.8141 0.139648 14.8529 0.0816406 14.8926 0.0488281ZM5.06738 22.3016C5.17129 22.4365 5.28711 22.5646 5.37793 22.7082C5.81816 23.3971 6.44922 23.6473 7.25098 23.5939L12.6824 23.2705L18.7949 22.9012L21.8383 22.7051C22.7402 22.6326 23.1758 22.1451 23.1934 21.2402V21.0449L23.2002 6.22793C23.201 5.78164 23.0469 5.46953 22.6898 5.22012L18.3883 2.18887C17.6963 1.68535 16.9617 1.45039 16.1109 1.51758L11.2938 1.87383L6.25684 2.24531L3.09531 2.4918C2.45664 2.55039 2.06074 2.94102 1.94629 3.56758C1.91846 3.72752 1.90493 3.88961 1.90586 4.05195L1.89277 16.9898C1.88828 17.8375 2.14766 18.5426 2.65508 19.191L5.06738 22.3016Z" fill="var(--fill-0, white)"/>
<path id="Vector_2" d="M5.05605 22.2885L2.65508 19.1908C2.14766 18.5424 1.88828 17.8375 1.89277 16.9898L1.90586 4.05195C1.90586 3.89023 1.91797 3.72617 1.94629 3.56758C2.06074 2.94121 2.45664 2.55059 3.09531 2.4918L6.25684 2.24531L11.2939 1.87383L16.1109 1.51758C16.9617 1.45039 17.6963 1.68535 18.3883 2.18887C19.8066 3.22109 21.2516 4.2168 22.6898 5.22012C23.0469 5.46953 23.201 5.78164 23.2002 6.22793L23.1934 21.0457V21.241C23.1758 22.1451 22.7402 22.6326 21.8383 22.7051C20.8252 22.7867 19.8098 22.8395 18.7949 22.9012L12.6824 23.2703L7.25098 23.5939C6.44922 23.6473 5.81816 23.3971 5.37793 22.7082C5.28711 22.5646 5.17129 22.4365 5.05605 22.2885ZM6.30723 13.3057V19.8463L6.30879 21.0662C6.31934 21.6133 6.5873 21.8857 7.13418 21.917C7.27148 21.9246 7.41035 21.9199 7.54844 21.9115L12.127 21.6416L20.8701 21.1418C21.415 21.1113 21.6668 20.8725 21.7178 20.3324C21.7277 20.2354 21.7246 20.1371 21.7246 20.0395L21.7254 7.44629C21.7254 7.37305 21.7277 7.2998 21.7232 7.22656C21.6904 6.72539 21.4752 6.5209 20.9771 6.54746L16.4711 6.80703C14.3605 6.92982 12.25 7.05338 10.1395 7.17773L6.97402 7.36777C6.57051 7.39355 6.38809 7.56758 6.32715 7.96211C6.31272 8.06674 6.30632 8.17232 6.30801 8.27793L6.30723 13.3057ZM17.4736 3.00742C17.0914 2.8 16.6764 2.73125 16.249 2.75488C15.5922 2.79082 14.9354 2.84492 14.2783 2.89238L4.91328 3.57285C4.63027 3.59336 4.3457 3.61387 4.06641 3.66445C3.97266 3.68125 3.8543 3.77578 3.82539 3.86133C3.80391 3.92148 3.89863 4.04297 3.96797 4.10938C4.09629 4.23203 4.24414 4.33496 4.38398 4.4457C4.71582 4.70742 5.06895 4.94609 5.37344 5.23535C5.95098 5.78379 6.62305 5.91055 7.39297 5.85488L13.4545 5.4748L19.9799 5.0834C20.0395 5.08047 20.099 5.06211 20.2301 5.0377C20.1104 4.91328 20.0408 4.81797 19.9502 4.75078C19.6305 4.51468 19.3078 4.28276 18.982 4.05508C18.4816 3.70248 17.9788 3.35325 17.4736 3.00742Z" fill="var(--fill-0, black)"/>
<path id="Vector_3" d="M6.30723 13.2812L6.30801 8.27793C6.30801 8.17246 6.31113 8.06582 6.32715 7.96211C6.38809 7.56758 6.57051 7.39375 6.97402 7.36777L10.1395 7.17773L16.4711 6.80703L20.977 6.54746C21.4752 6.5209 21.6904 6.72598 21.723 7.22656C21.7277 7.2998 21.7254 7.37305 21.7254 7.44629L21.7246 20.0395L21.7178 20.3324C21.6668 20.8725 21.415 21.1113 20.8701 21.1418L12.127 21.6416L7.54844 21.9115L7.13438 21.917C6.5873 21.8857 6.31934 21.6133 6.30879 21.067L6.30723 19.8463V13.2812ZM15.2459 13.2941L12.7326 9.46504C12.6449 9.33144 12.5588 9.2873 12.3971 9.30488L11.3258 9.37715L9.35508 9.52148C8.8707 9.56582 8.57773 10.0213 8.71191 10.4936L9.75566 10.5828V19.0385L9.04473 19.2391C8.72949 19.332 8.59453 19.5977 8.70059 19.9371L11.1045 19.799L12.0514 19.7213C12.4596 19.6541 12.6793 19.4039 12.7342 18.9957L11.4197 18.6959V12.3359L11.5174 12.4727L14.5385 17.1898C14.9826 17.8787 15.4386 18.5598 15.9064 19.2328C16.2398 19.7113 16.7312 19.8578 17.2836 19.7387C17.6293 19.6648 17.9611 19.5244 18.2998 19.4152C18.4762 19.358 18.5363 19.2527 18.5355 19.0551L18.5297 10.3637C18.5297 9.85566 18.5297 9.85566 19.0322 9.7543C19.5404 9.65195 19.6678 9.44902 19.5518 8.90586L16.5146 9.09043C16.1842 9.11406 15.934 9.39023 15.8838 9.71152C15.8592 9.86641 15.8912 9.95176 16.0766 9.9625L16.9961 10.0641V15.9584C16.4137 15.0699 15.8303 14.1821 15.2459 13.2949V13.2941ZM17.4902 3.01582C17.9888 3.36011 18.4859 3.70647 18.9816 4.05488C19.3074 4.28263 19.6303 4.51461 19.95 4.75078C20.0406 4.81797 20.1102 4.91328 20.2299 5.0377L19.9797 5.0834L13.4543 5.4748L7.39277 5.85488C6.62285 5.91055 5.95078 5.78379 5.37324 5.23535C5.06875 4.94629 4.71563 4.70742 4.38359 4.4457C4.24395 4.33496 4.09609 4.23203 3.96777 4.10918C3.89844 4.04277 3.80371 3.92168 3.8252 3.86113C3.8541 3.77578 3.97324 3.68125 4.06621 3.66445C4.34551 3.61406 4.63008 3.59336 4.91309 3.57285L14.2783 2.89238L16.249 2.75488C16.6762 2.73145 17.0912 2.7998 17.4902 3.01582Z" fill="var(--fill-0, white)"/>
<path id="Vector_4" d="M15.2564 13.3086L16.9961 15.9584V10.0639L16.0768 9.9623C15.8912 9.95176 15.8592 9.86641 15.8836 9.71152C15.934 9.39023 16.1844 9.11406 16.5145 9.09043L19.5518 8.90586C19.6678 9.44883 19.5404 9.65195 19.0322 9.7541C18.5295 9.85488 18.5295 9.85488 18.5295 10.3637L18.5355 19.0551C18.5363 19.2527 18.4762 19.358 18.2998 19.4152L17.2836 19.7387C16.7312 19.857 16.2398 19.7113 15.9066 19.2328C15.439 18.5597 14.9829 17.8786 14.5387 17.1898L11.5172 12.4725C11.4959 12.4389 11.4715 12.4076 11.4195 12.3359V18.6959L12.7342 18.9957C12.6793 19.4039 12.4596 19.6539 12.0514 19.7213C11.74 19.7723 11.4205 19.7799 11.1045 19.799L8.70059 19.9371C8.59453 19.5977 8.72949 19.332 9.04473 19.2391L9.75566 19.0385V10.5828L8.71191 10.4936C8.57773 10.0213 8.8707 9.56582 9.35508 9.52148C10.0105 9.46035 10.6689 9.42305 11.3258 9.37734C11.6828 9.35293 12.0414 9.34375 12.3971 9.30488C12.5588 9.2873 12.6451 9.33144 12.7326 9.46504L15.2564 13.3086Z" fill="var(--fill-0, black)"/>
</g>
<defs>
<clipPath id="clip0_0_5">
<rect width="25" height="25" fill="white"/>
</clipPath>
</defs>
</svg>
