<svg preserveAspectRatio="none" width="100%" height="100%" overflow="visible" style="display: block;" viewBox="0 0 24.4531 21.8359" fill="none" xmlns="http://www.w3.org/2000/svg">
<g id="Group">
<path id="Vector" d="M12.2266 13.1445C13.4563 13.1445 14.4531 12.1477 14.4531 10.918C14.4531 9.68827 13.4563 8.69141 12.2266 8.69141C10.9969 8.69141 10 9.68827 10 10.918C10 12.1477 10.9969 13.1445 12.2266 13.1445Z" fill="var(--fill-0, #61DAFB)"/>
<path id="Vector_2" d="M20.6836 7.24609C20.2539 7.08984 19.8047 6.93359 19.3359 6.79688C19.4531 6.32813 19.5508 5.85937 19.6289 5.41016C20.0391 2.83203 19.5898 1.01562 18.3398 0.3125C17.9688 0.0976561 17.5586 0 17.0898 0C15.7227 0 13.9844 1.01562 12.2266 2.71484C10.4687 1.01562 8.73047 0 7.36328 0C6.89453 0 6.48438 0.0976561 6.11328 0.3125C4.86328 1.03516 4.41406 2.85156 4.82422 5.41016C4.90234 5.85937 5 6.32813 5.11719 6.79688C4.64844 6.93359 4.19922 7.07031 3.76953 7.24609C1.32813 8.18359 0 9.47266 0 10.918C0 12.3633 1.34766 13.6523 3.76953 14.5898C4.19922 14.7461 4.64844 14.9023 5.11719 15.0391C5 15.5078 4.90234 15.9766 4.82422 16.4258C4.41406 19.0039 4.86328 20.8203 6.11328 21.5234C6.48438 21.7383 6.89453 21.8359 7.36328 21.8359C8.75 21.8359 10.4883 20.8203 12.2266 19.1211C13.9844 20.8203 15.7227 21.8359 17.0898 21.8359C17.5586 21.8359 17.9688 21.7383 18.3398 21.5234C19.5898 20.8008 20.0391 18.9844 19.6289 16.4258C19.5508 15.9766 19.4531 15.5078 19.3359 15.0391C19.8047 14.9023 20.2539 14.7656 20.6836 14.5898C23.125 13.6523 24.4531 12.3633 24.4531 10.918C24.4531 9.47266 23.125 8.18359 20.6836 7.24609ZM17.793 1.28906C18.5937 1.75781 18.8672 3.20312 18.5352 5.25391C18.4766 5.66406 18.3789 6.09375 18.2617 6.54297C17.2461 6.30859 16.1719 6.15234 15.0391 6.05469C14.375 5.11719 13.6914 4.27734 13.0078 3.51562C14.4531 2.08984 15.918 1.11328 17.1094 1.11328C17.3633 1.11328 17.5977 1.17187 17.793 1.28906ZM15.6055 12.8711C15.2539 13.4961 14.8437 14.1211 14.4141 14.7461C13.6914 14.8047 12.9687 14.8242 12.2266 14.8242C11.4648 14.8242 10.7422 14.8047 10.0391 14.7461C9.60937 14.1211 9.21875 13.4961 8.86719 12.8711C8.49609 12.2266 8.14453 11.5625 7.83203 10.918C8.14453 10.2734 8.49609 9.60938 8.86719 8.96484C9.21875 8.33984 9.62891 7.71484 10.0586 7.08984C10.7813 7.03125 11.5039 7.01172 12.2461 7.01172C13.0078 7.01172 13.7305 7.03125 14.4336 7.08984C14.8633 7.71484 15.2539 8.33984 15.6055 8.96484C15.9766 9.60938 16.3281 10.2734 16.6406 10.918C16.3086 11.5625 15.9766 12.207 15.6055 12.8711ZM17.2266 12.2266C17.5195 12.9102 17.7539 13.5742 17.9688 14.2383C17.3047 14.3945 16.6016 14.5117 15.8594 14.6094C16.0937 14.2383 16.3477 13.8477 16.5625 13.4375C16.7969 13.0273 17.0117 12.6172 17.2266 12.2266ZM12.2266 17.5195C11.7578 17.0117 11.3086 16.4648 10.8789 15.8984C11.3281 15.918 11.7773 15.9375 12.2266 15.9375C12.6758 15.9375 13.125 15.918 13.5742 15.8984C13.1445 16.4648 12.6953 17.0117 12.2266 17.5195ZM8.59375 14.5898C7.85156 14.4922 7.14844 14.375 6.48437 14.2188C6.69922 13.5742 6.93359 12.8906 7.22656 12.207C7.44141 12.5977 7.65625 13.0078 7.89062 13.3984C8.125 13.8281 8.35937 14.1992 8.59375 14.5898ZM7.22656 9.60937C6.93359 8.92578 6.69922 8.26172 6.48437 7.59766C7.14844 7.44141 7.85156 7.32422 8.59375 7.22656C8.35937 7.59766 8.10547 7.98828 7.89062 8.39844C7.65625 8.80859 7.44141 9.21875 7.22656 9.60937ZM12.2266 4.31641C12.6953 4.82422 13.1445 5.37109 13.5742 5.9375C13.125 5.91797 12.6758 5.89844 12.2266 5.89844C11.7773 5.89844 11.3281 5.91797 10.8789 5.9375C11.3086 5.37109 11.7578 4.82422 12.2266 4.31641ZM16.5625 8.41797L15.8594 7.24609C16.6016 7.34375 17.3047 7.46094 17.9688 7.61719C17.7539 8.26172 17.5195 8.94531 17.2266 9.62891C17.0117 9.21875 16.7969 8.80859 16.5625 8.41797ZM5.91797 5.25391C5.58594 3.20312 5.85937 1.75781 6.66016 1.28906C6.85547 1.17187 7.08984 1.11328 7.34375 1.11328C8.51562 1.11328 9.98047 2.07031 11.4453 3.51562C10.7617 4.25781 10.0781 5.11719 9.41406 6.05469C8.28125 6.15234 7.20703 6.32812 6.19141 6.54297C6.07422 6.09375 5.99609 5.66406 5.91797 5.25391ZM1.09375 10.918C1.09375 10 2.20703 9.02344 4.16016 8.30078C4.55078 8.14453 4.98047 8.00781 5.41016 7.89063C5.72266 8.86719 6.11328 9.90234 6.58203 10.9375C6.11328 11.9727 5.70313 12.9883 5.41016 13.9648C2.71484 13.1836 1.09375 12.0117 1.09375 10.918ZM6.66016 20.5469C5.85937 20.0781 5.58594 18.6328 5.91797 16.582C5.97656 16.1719 6.07422 15.7422 6.19141 15.293C7.20703 15.5273 8.28125 15.6836 9.41406 15.7813C10.0781 16.7188 10.7617 17.5586 11.4453 18.3203C10 19.7461 8.53516 20.7227 7.34375 20.7227C7.08984 20.7227 6.85547 20.6641 6.66016 20.5469ZM18.5352 16.582C18.8672 18.6328 18.5937 20.0781 17.793 20.5469C17.5977 20.6641 17.3633 20.7227 17.1094 20.7227C15.9375 20.7227 14.4727 19.7656 13.0078 18.3203C13.6914 17.5781 14.375 16.7188 15.0391 15.7813C16.1719 15.6836 17.2461 15.5078 18.2617 15.293C18.3789 15.7422 18.457 16.1719 18.5352 16.582ZM20.293 13.5352C19.9023 13.6914 19.4727 13.8281 19.043 13.9453C18.7305 12.9688 18.3398 11.9336 17.8711 10.8984C18.3398 9.86328 18.75 8.84766 19.043 7.87109C21.7383 8.65234 23.3594 9.82422 23.3594 10.918C23.3594 11.8359 22.2266 12.8125 20.293 13.5352Z" fill="var(--fill-0, #61DAFB)"/>
</g>
</svg>
