<svg preserveAspectRatio="none" width="100%" height="100%" overflow="visible" style="display: block;" viewBox="0 0 25 25" fill="none" xmlns="http://www.w3.org/2000/svg">
<g id="devicon:git" clip-path="url(#clip0_0_25)">
<path id="Vector" d="M24.3627 11.402L13.5979 0.6375C12.9783 0.0175781 11.9729 0.0175781 11.3523 0.6375L9.11719 2.87305L11.9527 5.70859C12.6119 5.48613 13.3674 5.63535 13.8926 6.16055C14.4205 6.68906 14.5686 7.45098 14.3406 8.1123L17.0734 10.8453C17.7346 10.6174 18.4977 10.7646 19.0254 11.2936C19.7637 12.0313 19.7637 13.2271 19.0254 13.9652C18.8499 14.1408 18.6416 14.28 18.4124 14.375C18.1831 14.47 17.9373 14.5189 17.6892 14.5189C17.441 14.5189 17.1952 14.47 16.966 14.375C16.7367 14.28 16.5284 14.1408 16.3529 13.9652C16.0894 13.7014 15.9098 13.3656 15.8366 13C15.7635 12.6343 15.8001 12.2552 15.9418 11.9104L13.3934 9.36191L13.393 16.0691C13.5779 16.1602 13.7467 16.2808 13.8928 16.4262C14.6307 17.1639 14.6307 18.3594 13.8928 19.0986C13.1547 19.8363 11.9584 19.8363 11.2211 19.0986C10.4832 18.3596 10.4832 17.1641 11.2211 16.4262C11.398 16.2493 11.6083 16.1092 11.8396 16.0141V9.24473C11.608 9.14995 11.3977 9.00976 11.2211 8.83242C10.6621 8.27383 10.5275 7.45352 10.8143 6.7668L8.01875 3.97129L0.6375 11.3521C0.33971 11.65 0.172422 12.054 0.172422 12.4752C0.172422 12.8964 0.33971 13.3004 0.6375 13.5982L11.4025 24.3627C12.0225 24.9826 13.0275 24.9826 13.6484 24.3627L24.3629 13.6482C24.6606 13.3503 24.8278 12.9463 24.8278 12.5251C24.8278 12.1038 24.6605 11.6999 24.3627 11.402Z" fill="var(--fill-0, #F34F29)"/>
</g>
<defs>
<clipPath id="clip0_0_25">
<rect width="25" height="25" fill="white"/>
</clipPath>
</defs>
</svg>
