<svg preserveAspectRatio="none" width="100%" height="100%" overflow="visible" style="display: block;" viewBox="0 0 25 25" fill="none" xmlns="http://www.w3.org/2000/svg">
<g id="devicon:webflow">
<g clip-path="url(#clip0_0_10)">
<path id="Vector" d="M0.194141 0.194141V24.8059H24.8059V0.194141H0.194141ZM14.241 8.3416C14.241 8.3416 15.0199 14.2119 15.0199 14.4828L16.1498 10.9438H16.142C16.6404 9.60391 17.6223 8.3416 19.492 8.3416L16.843 14.7381C16.613 15.4629 16.1569 16.0961 15.5406 16.5459C14.9243 16.9957 14.18 17.2388 13.4154 17.2398C13.4154 17.2398 12.6361 11.7412 12.6361 11.6172L11.4678 14.6377C10.9457 15.9775 9.9332 17.2398 8.06348 17.2398L6.59863 8.34961C7.31149 8.36737 7.99304 8.64437 8.51421 9.12815C9.03538 9.61192 9.35999 10.2689 9.42656 10.9746C9.42656 10.9746 9.62148 14.235 9.62148 14.4904L11.0004 10.9436C11.499 9.60371 12.4492 8.3416 14.241 8.3416Z" fill="var(--fill-0, #4353FF)"/>
</g>
</g>
<defs>
<clipPath id="clip0_0_10">
<rect width="25" height="25" rx="12.5" fill="white"/>
</clipPath>
</defs>
</svg>
